<svg width="12" height="16" viewBox="0 0 12 16" fill="none" xmlns="http://www.w3.org/2000/svg">
<path d="M5.86433 0.492188C2.98939 0.492188 0.650391 2.83118 0.650391 5.70611C0.650391 9.31961 5.86946 15.4922 5.86946 15.4922C5.86946 15.4922 11.0783 9.14191 11.0783 5.70611C11.0783 2.83118 8.73937 0.492188 5.86433 0.492188ZM7.43749 7.23276C7.00371 7.66644 6.43407 7.88333 5.86433 7.88333C5.29469 7.88333 4.72487 7.66644 4.29127 7.23276C3.42381 6.36539 3.42381 4.95401 4.29127 4.08655C4.71132 3.66632 5.27006 3.43488 5.86433 3.43488C6.4586 3.43488 7.01726 3.66641 7.43749 4.08655C8.30495 4.95401 8.30495 6.36539 7.43749 7.23276Z" fill="#121111"/>
</svg>
