<svg width="16" height="16" viewBox="0 0 16 16" fill="none" xmlns="http://www.w3.org/2000/svg">
<g opacity="0.4">
<path d="M7.86433 0.492188C4.98939 0.492188 2.65039 2.83118 2.65039 5.70611C2.65039 9.31961 7.86946 15.4922 7.86946 15.4922C7.86946 15.4922 13.0783 9.14191 13.0783 5.70611C13.0783 2.83118 10.7394 0.492188 7.86433 0.492188ZM9.43749 7.23276C9.00371 7.66644 8.43407 7.88333 7.86433 7.88333C7.29469 7.88333 6.72487 7.66644 6.29127 7.23276C5.42381 6.36539 5.42381 4.95401 6.29127 4.08655C6.71132 3.66632 7.27006 3.43488 7.86433 3.43488C8.4586 3.43488 9.01726 3.66641 9.43749 4.08655C10.305 4.95401 10.305 6.36539 9.43749 7.23276Z" fill="#121111"/>
</g>
</svg>
